<?xml version="1.0" encoding="UTF-8" standalone="no"?>
<!-- Created with Inkscape (http://www.inkscape.org/) -->

<svg
   width="512"
   height="1024"
   viewBox="0 0 135.46667 270.93333"
   version="1.1"
   id="svg1"
   xml:space="preserve"
   inkscape:version="1.4.2 (ebf0e94, 2025-05-08)"
   sodipodi:docname="logo.svg"
   xmlns:inkscape="http://www.inkscape.org/namespaces/inkscape"
   xmlns:sodipodi="http://sodipodi.sourceforge.net/DTD/sodipodi-0.dtd"
   xmlns="http://www.w3.org/2000/svg"
   xmlns:svg="http://www.w3.org/2000/svg"><sodipodi:namedview
     id="namedview1"
     pagecolor="#ffffff"
     bordercolor="#000000"
     borderopacity="0.25"
     inkscape:showpageshadow="2"
     inkscape:pageopacity="0.0"
     inkscape:pagecheckerboard="0"
     inkscape:deskcolor="#d1d1d1"
     inkscape:document-units="mm"
     inkscape:zoom="0.35589576"
     inkscape:cx="1184.3355"
     inkscape:cy="552.12795"
     inkscape:window-width="1920"
     inkscape:window-height="1008"
     inkscape:window-x="0"
     inkscape:window-y="0"
     inkscape:window-maximized="1"
     inkscape:current-layer="layer1" /><defs
     id="defs1" /><g
     inkscape:label="Layer 1"
     inkscape:groupmode="layer"
     id="layer1"><g
       id="g10"
       transform="matrix(0.90988281,0,0,0.90988281,-240.8388,26.316391)"><path
         style="fill:#f8cc99"
         d="m 336.68175,254.55562 c -1.76415,-1.40591 -4.15352,-3.96924 -4.7188,-5.06237 -0.25828,-0.49947 -0.54817,-1.50804 -0.64419,-2.24128 l -0.17458,-1.33314 -0.56684,1.08135 c -0.67595,1.28953 -4.67892,5.13636 -5.34483,5.13636 -1.17771,0 -4.72652,-3.32859 -5.98807,-5.61648 -0.71506,-1.2968 -0.78015,-1.65569 -0.92491,-5.09915 -0.0856,-2.03729 -0.1766,-3.50776 -0.20212,-3.26771 -0.11689,1.09955 -5.11205,6.29256 -6.06559,6.30582 -0.61577,0.009 -5.51299,-5.10481 -6.07715,-6.3454 -0.48962,-1.07666 -0.84027,-3.64455 -0.86127,-6.30737 l -0.007,-0.88342 -0.81405,0.68498 c -0.44773,0.37674 -1.03263,0.68498 -1.29978,0.68498 -0.60172,0 -3.27171,-2.20711 -4.45244,-3.68053 -1.86837,-2.33154 -1.92618,-2.65573 -1.84286,-10.33404 0.0411,-3.78834 0.0152,-6.88516 -0.0575,-6.88182 -0.0728,0.003 -0.42995,0.2389 -0.79375,0.52347 -0.3638,0.28457 -0.81823,0.52005 -1.00985,0.52328 -0.52205,0.009 -3.14875,-2.34151 -4.13315,-3.69828 -1.45338,-2.00315 -1.47923,-2.22359 -1.20413,-10.26787 0.13782,-4.02981 0.43587,-13.04192 0.66233,-20.02692 0.22647,-6.985 0.58879,-17.32079 0.80517,-22.96841 0.21637,-5.64763 0.32422,-10.38036 0.23965,-10.51719 -0.0846,-0.13683 -0.47414,-0.24989 -0.86574,-0.25126 -1.19556,-0.004 -3.4356,-1.48069 -4.2898,-2.82761 -0.95192,-1.50104 -1.41936,-2.8959 -2.11056,-6.29803 -0.80475,-3.96103 -1.19103,-5.13169 -3.35761,-10.17572 -2.29213,-5.33632 -2.99256,-7.79183 -2.99256,-10.49108 0,-3.59492 0.85571,-6.19643 2.69914,-8.20586 0.67269,-0.73326 1.00803,-1.28406 0.82085,-1.34823 -0.87951,-0.30153 -3.51852,-2.24694 -4.49559,-3.31406 -3.54175,-3.868122 -4.20766,-10.476036 -1.55848,-15.465044 l 0.92946,-1.75039 -0.76347,-1.7446 c -1.57894,-3.60801 -2.80961,-9.052471 -2.60472,-11.523174 0.27137,-3.272455 3.28989,-6.994144 7.82763,-9.651102 1.73056,-1.013289 2.41225,-1.551834 2.30804,-1.823397 -0.98667,-2.571232 -2.25241,-8.33577 -2.25241,-10.258139 0,-3.351101 1.40695,-4.730713 9.76317,-9.57344 0.30991,-0.179604 0.24701,-0.753255 -0.38484,-3.509813 -0.56631,-2.470657 -0.75831,-3.99525 -0.76733,-6.093332 -0.0115,-2.663799 0.0265,-2.860561 0.79,-4.09615 1.63616,-2.647764 6.06748,-5.329337 12.91396,-7.814759 2.89587,-1.051266 3.22004,-1.239501 4.28861,-2.490279 1.63633,-1.915334 2.87423,-4.712224 3.97996,-8.9921843 0.52603,-2.0361019 1.17705,-4.1344842 1.44671,-4.663072 0.61448,-1.2044707 1.70978,-2.1366037 3.26491,-2.7785387 1.37031,-0.565642 1.25422,-0.237119 2.27953,-6.451177 0.86844,-5.26333 2.07081,-7.069321 5.91517,-8.884715 5.98614,-2.826791 17.12904,-3.323702 25.66421,-1.14448 4.37843,1.117915 6.98706,2.886586 8.23721,5.584896 0.3401,0.734073 1.00319,3.356016 1.47354,5.826539 l 0.85518,4.491862 1.08626,0.465628 c 1.46602,0.628408 2.72483,1.72823 3.30529,2.8878224 0.264,0.5273979 0.85785,2.5737557 1.31966,4.5474618 0.97528,4.1681218 1.8938,6.2730238 3.86059,8.8470478 l 1.4153,1.852272 3.43316,1.133061 c 5.42392,1.790083 10.37477,4.417051 12.02856,6.382475 1.28906,1.531961 1.61331,2.906931 1.42728,6.052477 -0.14365,2.429151 -0.86928,6.959682 -1.36469,8.520575 -0.11939,0.376166 0.24003,0.671528 1.75173,1.439509 2.553,1.296992 5.98927,3.567297 7.03852,4.650286 1.74554,1.801647 1.795,4.030918 0.22719,10.23851 -0.52186,2.066269 -0.94884,3.933403 -0.94884,4.149187 0,0.215784 0.96946,0.965982 2.15435,1.667105 3.05671,1.808717 5.82608,4.463765 6.87198,6.588282 0.82315,1.672058 0.8354,1.752527 0.69158,4.544345 -0.16195,3.143776 -0.92372,6.162345 -2.44992,9.707981 l -0.90537,2.103337 0.81534,1.270593 c 3.80529,5.930032 1.36826,15.475794 -4.74137,18.571774 l -1.35562,0.68694 1.24546,1.25805 c 2.03592,2.05652 2.89664,5.45391 2.43225,9.60048 -0.30386,2.7132 -0.90936,4.55383 -3.40979,10.36527 -1.34831,3.13372 -2.09077,5.28987 -2.55099,7.40833 -1.0144,4.66939 -1.42686,6.07631 -2.13977,7.29877 -0.80737,1.38448 -2.32407,2.52255 -4.15171,3.11531 -0.75348,0.24437 -1.45185,0.51897 -1.55195,0.61023 -0.10009,0.0913 -0.0789,2.96388 0.0471,6.38362 0.12598,3.41974 0.55459,17.15082 0.95246,30.51352 l 0.7234,24.29582 -0.57084,1.17494 c -0.67751,1.39453 -2.27815,3.18967 -3.75931,4.21611 l -1.06648,0.73907 -0.71799,-0.52264 c -0.39489,-0.28745 -0.83705,-0.59299 -0.98257,-0.67897 -0.1746,-0.10317 -0.2333,2.22363 -0.17259,6.84125 l 0.092,6.99759 -0.72546,1.43385 c -0.68671,1.35726 -3.4025,4.36544 -4.91673,5.44607 l -0.69571,0.4965 -1.22252,-0.93347 -1.22252,-0.93346 -0.003,3.12097 c -0.002,2.71673 -0.0829,3.29232 -0.62228,4.44389 -0.74188,1.58374 -2.50976,3.59729 -4.52011,5.14827 l -1.46961,1.13379 -1.44122,-1.1119 c -1.67938,-1.29563 -3.23373,-2.92961 -4.2553,-4.4733 -0.39809,-0.60156 -0.73774,-1.09348 -0.75478,-1.09317 -0.017,3.2e-4 -0.031,1.69696 -0.031,3.77032 0,3.18574 -0.0769,3.91082 -0.49608,4.68043 -1.0419,1.91269 -5.25957,5.83619 -6.27375,5.83619 -0.62652,0 -4.19163,-3.3517 -5.22573,-4.91292 l -0.76509,-1.15506 -0.15396,1.29997 c -0.20028,1.69104 -0.74007,2.69556 -2.39814,4.46279 -1.48564,1.58345 -4.25654,3.7448 -4.80093,3.7448 -0.1892,0 -0.92025,-0.45922 -1.62454,-1.0205 z M 314.06389,122.11367 c 1.49036,-0.77069 1.78051,-2.68403 0.58789,-3.87665 -1.24736,-1.24736 -3.15322,-1.0223 -3.94588,0.46598 -0.54931,1.03136 -0.37247,2.17624 0.46559,3.01431 0.86008,0.86007 1.75779,0.98309 2.8924,0.39636 z m 46.35511,0.10461 c 0.64859,-0.34711 1.30826,-1.61422 1.30826,-2.51291 0,-1.09041 -1.32155,-2.24362 -2.55933,-2.23333 -1.1048,0.009 -1.68548,0.34011 -2.15995,1.23096 -1.16474,2.18688 1.2477,4.67305 3.41102,3.51528 z"
         id="path6" /><path
         style="fill:#f9bd8d"
         d="m 336.68175,254.55562 c -1.76415,-1.40591 -4.15352,-3.96924 -4.7188,-5.06237 -0.25828,-0.49947 -0.54817,-1.50804 -0.64419,-2.24128 l -0.17458,-1.33314 -0.56684,1.08135 c -0.67595,1.28953 -4.67892,5.13636 -5.34483,5.13636 -1.17771,0 -4.72652,-3.32859 -5.98807,-5.61648 -0.71506,-1.2968 -0.78015,-1.65569 -0.92491,-5.09915 -0.0856,-2.03729 -0.1766,-3.50776 -0.20212,-3.26771 -0.11689,1.09955 -5.11205,6.29256 -6.06559,6.30582 -0.61577,0.009 -5.51299,-5.10481 -6.07715,-6.3454 -0.48962,-1.07666 -0.84027,-3.64455 -0.86127,-6.30737 l -0.007,-0.88342 -0.81405,0.68498 c -0.44773,0.37674 -1.03263,0.68498 -1.29978,0.68498 -0.60172,0 -3.27171,-2.20711 -4.45244,-3.68053 -1.86837,-2.33154 -1.92618,-2.65573 -1.84286,-10.33404 0.0411,-3.78834 0.0152,-6.88516 -0.0575,-6.88182 -0.0728,0.003 -0.42995,0.2389 -0.79375,0.52347 -0.3638,0.28457 -0.81823,0.52005 -1.00985,0.52328 -0.52205,0.009 -3.14875,-2.34151 -4.13315,-3.69828 -1.45338,-2.00315 -1.47923,-2.22359 -1.20413,-10.26787 0.13782,-4.02981 0.43584,-13.04192 0.66227,-20.02692 0.22643,-6.985 0.58612,-17.25179 0.79932,-22.81508 0.21319,-5.56329 0.38763,-10.28556 0.38763,-10.49393 0,-0.23455 -0.39526,-0.44563 -1.03771,-0.55417 -2.31163,-0.39055 -4.64559,-2.69919 -5.34912,-5.29109 -0.73772,-2.71789 -1.35906,-5.82899 -1.72763,-7.31931 -0.74694,-3.02026 -2.13864,-5.77212 -3.3445,-8.64892 -2.40076,-5.7827 -2.75009,-9.28945 -1.34152,-13.46672 0.46372,-1.37521 1.98751,-3.62959 2.61646,-3.87094 0.65733,-0.25224 0.43621,-0.53449 -0.94608,-1.20758 -1.99787,-0.97284 -4.31556,-3.21124 -5.23954,-5.06029 -1.1189,-2.239112 -1.43874,-4.099263 -1.30511,-7.590347 0.11034,-2.882788 0.15335,-3.064918 1.21366,-5.140259 l 1.09927,-2.151576 -0.76405,-1.745936 c -1.5795,-3.609289 -2.81024,-9.053405 -2.60531,-11.52451 0.27113,-3.269491 3.29044,-6.994517 7.8181,-9.645464 1.34553,-0.787804 2.44487,-1.502179 2.443,-1.5875 -0.002,-0.08532 -0.24954,-0.929035 -0.55036,-1.87492 -0.91327,-2.871643 -1.82255,-7.193945 -1.82508,-8.675645 -0.005,-2.752307 1.81643,-4.790439 7.02973,-7.867329 1.66212,-0.980982 3.02204,-1.891206 3.02204,-2.02272 0,-0.131515 -0.32247,-1.633738 -0.71661,-3.338274 -0.53063,-2.294881 -0.71946,-3.825334 -0.7276,-5.897371 -0.0105,-2.662935 0.0278,-2.860962 0.79104,-4.09615 1.1196,-1.811829 3.4603,-3.603968 6.87087,-5.260628 5.20068,-2.52619 9.96774,-4.087324 16.56701,-5.425428 19.81055,-4.016892 42.81319,-2.973096 60.10179,2.727253 8.28935,2.733139 12.81194,5.387256 14.14628,8.301844 0.63453,1.385992 0.66379,1.639382 0.50893,4.4078 -0.14083,2.517783 -0.85367,7.012659 -1.37026,8.640266 -0.12369,0.389737 0.13227,0.637539 1.23657,1.197128 0.7659,0.388112 2.46336,1.368038 3.77214,2.177613 5.72574,3.541802 6.04288,4.633435 3.85383,13.265652 -0.57005,2.247925 -1.01035,4.103765 -0.97845,4.12409 0.0319,0.02032 1.05722,0.621894 2.27849,1.336822 3.10094,1.815276 5.88023,4.464483 6.93813,6.613379 0.82315,1.672058 0.8354,1.752527 0.69158,4.544345 -0.16191,3.142885 -0.9237,6.162278 -2.44848,9.704647 l -0.90392,2.100002 0.74066,1.207289 c 1.42636,2.324958 1.75778,3.603908 1.75266,6.763539 -0.004,2.325135 -0.12532,3.262041 -0.60443,4.658932 -1.11133,3.240166 -3.22029,5.794786 -6.02734,7.301016 l -1.44564,0.77571 0.97571,0.64363 c 2.01342,1.32817 3.2267,5.26215 2.90672,9.4249 -0.20069,2.611 -1.05583,5.42486 -2.99941,9.86974 -2.22055,5.0783 -2.64927,6.35401 -3.40435,10.13018 -0.80284,4.01499 -1.58122,5.88497 -2.94983,7.08663 -1.08619,0.95368 -2.83149,1.82077 -3.68247,1.82949 -0.31185,0.003 -0.63055,0.1714 -0.70821,0.37378 -0.0777,0.20237 -0.0394,3.14917 0.0849,6.54843 0.12436,3.39926 0.55164,17.11359 0.94951,30.47629 l 0.7234,24.29582 -0.57084,1.17494 c -0.67751,1.39453 -2.27815,3.18967 -3.75931,4.21611 l -1.06648,0.73907 -0.71799,-0.52264 c -0.39489,-0.28745 -0.83705,-0.59299 -0.98257,-0.67897 -0.1746,-0.10317 -0.2333,2.22363 -0.17259,6.84125 l 0.092,6.99759 -0.72546,1.43385 c -0.68671,1.35726 -3.4025,4.36544 -4.91673,5.44607 l -0.69571,0.4965 -1.22252,-0.93347 -1.22252,-0.93346 -0.003,3.12097 c -0.002,2.71673 -0.0829,3.29232 -0.62228,4.44389 -0.74188,1.58374 -2.50976,3.59729 -4.52011,5.14827 l -1.46961,1.13379 -1.44122,-1.1119 c -1.67938,-1.29563 -3.23373,-2.92961 -4.2553,-4.4733 -0.39809,-0.60156 -0.73774,-1.09348 -0.75478,-1.09317 -0.017,3.2e-4 -0.031,1.69696 -0.031,3.77032 0,3.18574 -0.0769,3.91082 -0.49608,4.68043 -1.0419,1.91269 -5.25957,5.83619 -6.27375,5.83619 -0.62652,0 -4.19163,-3.3517 -5.22573,-4.91292 l -0.76509,-1.15506 -0.15396,1.29997 c -0.20028,1.69104 -0.74007,2.69556 -2.39814,4.46279 -1.48564,1.58345 -4.25654,3.7448 -4.80093,3.7448 -0.1892,0 -0.92025,-0.45922 -1.62454,-1.0205 z M 359.34601,-0.855383 c -1.02481,-0.388076 -6.82732,-1.779634 -8.59895,-2.062201 -5.48394,-0.874662 -14.85854,-1.125912 -20.24063,-0.542472 -3.266,0.354048 -8.59773,1.377657 -11.31522,2.172347 -1.05738,0.309215 -1.96427,0.514527 -2.0153,0.456249 -0.17619,-0.201217 1.41298,-8.840403 1.82842,-9.939803 1.71863,-4.548074 8.92135,-7.231782 19.40915,-7.231782 3.94194,0 7.75006,0.456635 11.24076,1.347889 4.40214,1.123967 7.01142,2.902854 8.24703,5.622458 0.5697,1.253904 2.38258,9.704844 2.18996,10.208706 -0.0461,0.120499 -0.38141,0.106373 -0.74522,-0.031391 z"
         id="path5"
         sodipodi:nodetypes="csscssssscsscsssscscssssssssssssssscssscscssssssssssssssssssscscsscssssscssscsscssscssccccsscsssscsscsssccsssssssssss" /><path
         style="fill:#f0ac72"
         d="m 336.68175,254.55562 c -1.748,-1.39303 -4.15179,-3.9659 -4.70528,-5.03623 -0.25085,-0.48509 -0.52414,-1.5414 -0.60733,-2.34736 l -0.15124,-1.46538 -0.60327,1.18705 c -0.68954,1.35679 -4.67883,5.24284 -5.38212,5.24284 -1.17617,0 -4.72242,-3.32456 -5.991,-5.61648 -0.73029,-1.31941 -0.77713,-1.59288 -0.86473,-5.04812 l -0.0926,-3.65314 -0.53218,1.07564 c -0.57032,1.15271 -5.06534,5.56918 -5.66824,5.56918 -0.19941,0 -1.53371,-1.16086 -2.9651,-2.57969 -3.19832,-3.17024 -3.74764,-4.22177 -3.74764,-7.17394 0,-1.14756 -0.0741,-2.45688 -0.16462,-2.90961 l -0.16463,-0.82313 -0.78171,0.65777 c -0.42995,0.36177 -1.0003,0.65777 -1.26745,0.65777 -0.60171,0 -3.27171,-2.20711 -4.45243,-3.68053 -0.48275,-0.60242 -1.12409,-1.65225 -1.42519,-2.33295 -0.52042,-1.17648 -0.54106,-1.58138 -0.41788,-8.19541 0.0713,-3.82678 0.0937,-6.95778 0.0498,-6.95778 -0.0439,0 -0.401,0.29766 -0.79355,0.66146 -0.39255,0.3638 -0.88288,0.66146 -1.08963,0.66146 -0.54449,0 -3.15035,-2.31411 -4.17117,-3.70417 -1.38452,-1.88531 -1.44768,-2.43301 -1.18319,-10.25936 0.13142,-3.88897 0.42268,-12.72632 0.64723,-19.63856 0.22455,-6.91224 0.56779,-17.27067 0.76276,-23.01875 0.33675,-9.92775 0.36681,-12.36968 0.22511,-18.2857 l -0.0609,-2.543 -0.65074,0.1244 c -0.77591,0.14832 -2.72753,-0.74281 -3.55442,-1.623 -0.32386,-0.34473 -1.16159,-2.15938 -1.86161,-4.03255 -0.70003,-1.87317 -1.78813,-4.71546 -2.41801,-6.31619 -1.05856,-2.69016 -1.14626,-3.10064 -1.15887,-5.42396 -0.0147,-2.70883 0.40461,-3.95779 1.75015,-5.21289 2.09725,-1.95628 5.66509,-1.8162 7.94809,0.31204 0.39383,0.36714 0.78079,0.66752 0.8599,0.66752 0.0791,0 0.14384,-1.05856 0.14384,-2.35236 0,-2.23378 -0.0445,-2.41717 -0.88352,-3.63802 -0.6437,-0.9367 -1.33222,-1.51906 -2.53666,-2.14556 -1.93403,-1.006 -3.58935,-1.10535 -5.70795,-0.34259 l -1.32291,0.47629 -1.5875,-0.82289 c -2.05756,-1.06654 -4.35215,-3.35446 -5.21294,-5.197786 -1.89538,-4.058829 -1.67963,-10.174011 0.46996,-13.32027 l 0.69493,-1.017146 -1.06029,-2.687021 c -1.54326,-3.911017 -2.26285,-7.009608 -2.28299,-9.830771 -0.015,-2.107353 0.0706,-2.559662 0.74461,-3.93235 1.0697,-2.178539 3.97143,-4.9851 6.98967,-6.760438 1.33935,-0.787804 2.43443,-1.502179 2.43353,-1.5875 -9e-4,-0.08532 -0.35572,-1.382673 -0.78849,-2.883006 -1.87386,-6.496315 -1.97212,-8.949831 -0.43918,-10.965165 1.00546,-1.32186 4.20163,-3.674467 7.06398,-5.199592 l 2.03121,-1.082275 -0.79648,-3.241712 c -0.62221,-2.532384 -0.80253,-3.878548 -0.82409,-6.152128 -0.0258,-2.72214 0.0194,-2.990281 0.69814,-4.144974 4.17189,-7.096827 26.44189,-13.189045 48.19445,-13.184158 11.69003,0.0026 23.9129,1.660241 33.44661,4.535891 9.5759,2.888373 14.48375,5.582745 16.06824,8.821333 0.70256,1.435976 0.72277,1.594678 0.56675,4.450285 -0.089,1.628663 -0.4512,4.330425 -0.80492,6.003914 -0.47156,2.230949 -0.56221,3.097112 -0.3398,3.24663 0.16684,0.112156 1.715,1.034919 3.44035,2.050583 3.75835,2.212432 4.97421,3.142794 5.7521,4.401437 0.9142,1.479204 0.7609,4.034107 -0.55962,9.326574 -0.86517,3.467467 -1.01356,4.38782 -0.73754,4.574297 0.19006,0.128396 0.82181,0.481518 1.40389,0.784716 2.91199,1.516809 6.42693,4.699338 7.58222,6.865162 0.55658,1.043419 0.61726,1.486211 0.59437,4.337059 -0.0282,3.518629 -0.59352,5.913021 -2.38245,10.091698 l -0.92224,2.154198 0.66132,0.974513 c 2.36196,3.480538 2.5866,8.91332 0.54684,13.225019 -0.89308,1.887823 -3.07684,4.249213 -4.99953,5.406213 l -1.48796,0.89539 -1.72007,-0.56466 c -2.85686,-0.93784 -5.1564,-0.62666 -6.99427,0.94649 -1.68704,1.44405 -2.12302,2.54424 -2.12302,5.35747 0,1.31549 0.0429,2.39179 0.0953,2.39179 0.0524,0 0.52335,-0.40371 1.04654,-0.89715 0.52319,-0.49343 1.51356,-1.08874 2.20081,-1.32291 4.90407,-1.67099 8.42685,2.38372 7.25334,8.34856 -0.17819,0.90571 -1.01353,3.3799 -1.8563,5.49819 -0.84277,2.11829 -1.6818,4.32769 -1.86451,4.90977 -0.48553,1.54686 -1.18133,2.83012 -1.89601,3.49679 -0.90176,0.84118 -2.72752,1.43622 -3.50259,1.14154 l -0.62595,-0.23799 -0.10664,6.00192 c -0.0587,3.30105 -0.0212,8.56175 0.0832,11.69045 0.10442,3.1287 0.51447,16.56546 0.91123,29.85947 l 0.72137,24.17092 -0.56723,1.16754 c -0.67426,1.38783 -2.27718,3.18408 -3.75572,4.20871 l -1.06648,0.73907 -0.71799,-0.52264 c -0.39489,-0.28745 -0.83705,-0.59293 -0.98257,-0.67885 -0.17461,-0.1031 -0.23245,2.21607 -0.17009,6.82019 0.0924,6.82355 0.0812,7.00377 -0.51036,8.22587 -0.60068,1.24083 -3.66572,4.69345 -5.02725,5.66295 l -0.7108,0.50613 -1.22252,-0.93347 -1.22252,-0.93346 v 3.13517 c 0,2.83967 -0.0643,3.26427 -0.68256,4.50489 -0.82846,1.66249 -2.48988,3.55127 -4.46242,5.07307 l -1.46961,1.13379 -1.44122,-1.1119 c -1.67938,-1.29563 -3.23373,-2.92961 -4.2553,-4.4733 -0.39809,-0.60156 -0.73774,-1.09373 -0.75478,-1.09373 -0.017,0 -0.031,1.69664 -0.031,3.77031 0,4.2441 -0.1145,4.61705 -2.07296,6.75193 -1.6398,1.78751 -4.10163,3.76526 -4.68685,3.76526 -0.63451,0 -4.19374,-3.33977 -5.23575,-4.91292 l -0.76509,-1.15506 -0.15396,1.29997 c -0.20028,1.69104 -0.74007,2.69556 -2.39814,4.46279 -1.48564,1.58345 -4.25654,3.7448 -4.80093,3.7448 -0.1892,0 -0.92025,-0.45922 -1.62454,-1.0205 z m 28.74987,-95.61856 c 2.7e-4,-0.841 1.14254,-4.98964 2.5512,-9.26576 1.47415,-4.4749 2.19166,-5.49691 7.04477,-10.03441 5.58092,-5.21797 6.3342,-5.84181 6.58208,-5.45104 0.15019,0.23677 0.23005,0.13802 0.25719,-0.31806 0.0499,-0.8377 -0.0623,-9.51779 -0.26828,-20.76979 l -0.15986,-8.73125 -3.44124,-1.7198 c -8.58143,-4.288652 -18.47487,-6.802718 -30.29313,-7.697922 -5.04279,-0.381979 -17.07309,-0.163402 -22.48959,0.408609 -6.24824,0.659848 -12.39134,1.965656 -18.25625,3.880637 -3.47882,1.135886 -9.16861,3.766526 -10.35961,4.789696 -0.79576,0.68363 -0.63464,-1.73012 -1.31347,19.67634 l -0.30279,9.54799 1.29158,1.20356 c 0.71037,0.66196 1.82736,1.64241 2.48221,2.17878 1.91056,1.5649 7.10122,6.77801 8.11387,8.14896 1.13975,1.54303 1.98864,3.71802 3.79433,9.72169 0.76594,2.54661 1.42963,4.67343 1.47488,4.72625 0.0453,0.0528 1.39069,-0.57323 2.98987,-1.39123 5.28236,-2.70199 11.0122,-4.53894 16.17674,-5.18614 l 2.51947,-0.31573 2.05716,1.08342 c 1.13143,0.59589 2.24168,1.08343 2.4672,1.08343 0.22553,0 1.35453,-0.49137 2.50889,-1.09194 l 2.09883,-1.09193 2.3742,0.30448 c 5.5369,0.71008 12.42853,2.92633 17.32144,5.57032 1.30968,0.70772 2.47054,1.29787 2.57968,1.31145 0.10914,0.0136 0.19853,-0.24319 0.19863,-0.57061 z m -31.31078,-10.64135 c -2.45047,-1.50991 -4.50267,-2.79257 -4.56045,-2.85036 -0.0578,-0.0578 0.6573,-2.35895 1.58909,-5.11371 5.96208,-17.62645 7.08042,-20.88059 7.34732,-21.37931 0.26601,-0.49705 0.37558,-0.33036 1.02341,1.55701 0.39903,1.16251 2.09443,6.10225 3.76756,10.9772 1.67314,4.87495 3.45014,10.0201 3.94891,11.43367 l 0.90685,2.57012 -4.70543,2.78769 c -2.58798,1.53323 -4.74062,2.78212 -4.78365,2.77533 -0.043,-0.007 -2.08315,-1.24773 -4.53361,-2.75764 z M 314.24667,135.9501 c -1.36892,-0.3198 -3.26184,-1.55819 -4.20289,-2.74961 -0.93977,-1.1898 -2.11094,-3.77488 -2.57455,-5.6827 -0.48912,-2.01279 -0.42292,-6.10328 0.13244,-8.18319 0.88299,-3.30698 2.79805,-6.06277 5.03349,-7.24323 1.65572,-0.87434 4.38721,-0.80848 6.00895,0.14487 3.28418,1.93062 5.24774,6.18674 5.24774,11.37481 0,4.28833 -1.11801,7.62426 -3.35767,10.01863 -1.86501,1.99385 -4.12123,2.82651 -6.28751,2.32042 z m -0.18278,-13.83643 c 1.49036,-0.77069 1.78051,-2.68403 0.58789,-3.87665 -1.24736,-1.24736 -3.15322,-1.0223 -3.94588,0.46598 -0.54931,1.03136 -0.37247,2.17624 0.46559,3.01431 0.86008,0.86007 1.75779,0.98309 2.8924,0.39636 z m 44.88525,13.26113 c -1.47731,-0.70696 -3.25646,-2.49733 -4.07382,-4.09949 -2.03572,-3.99033 -2.15712,-10.64094 -0.26315,-14.41533 1.79188,-3.57094 4.15926,-5.34635 7.11509,-5.33596 3.8825,0.0137 6.58625,2.83573 7.96971,8.31848 1.453,5.75838 -0.52498,12.41466 -4.4669,15.03195 -1.24091,0.82391 -1.70707,0.97645 -3.20506,1.04879 -1.42003,0.0686 -2.00421,-0.0356 -3.07587,-0.54844 z m 1.46986,-13.15652 c 0.64859,-0.34711 1.30826,-1.61422 1.30826,-2.51291 0,-1.09041 -1.32155,-2.24362 -2.55933,-2.23333 -1.1048,0.009 -1.68548,0.34011 -2.15995,1.23096 -1.16474,2.18688 1.2477,4.67305 3.41102,3.51528 z M 317.83903,-5.236899 c 0.40897,-2.437474 0.93221,-4.927938 1.16276,-5.534364 0.92212,-2.425458 3.91256,-4.706221 7.54624,-5.755397 4.76202,-1.37497 12.74362,-1.861822 17.98132,-1.096803 7.98755,1.166664 11.75264,3.022564 13.37076,6.590765 0.55895,1.232565 2.41118,9.879655 2.16828,10.122553 -0.0555,0.05553 -1.95656,-0.365575 -4.22451,-0.935783 -11.28904,-2.838284 -24.14465,-2.746969 -35.62892,0.253076 -1.65849,0.433248 -3.03885,0.787724 -3.06747,0.787724 -0.0286,0 0.28258,-1.994297 0.69154,-4.431771 z"
         id="path4" /><path
         style="fill:#f0a15b"
         d="m 336.3126,254.16552 c -3.27981,-2.71329 -4.67914,-4.7287 -4.9871,-7.18278 l -0.16671,-1.3285 -0.61469,1.25745 c -0.67662,1.38412 -4.62305,5.22485 -5.36865,5.22485 -1.11554,0 -5.03168,-3.87324 -6.09113,-6.0244 -0.55494,-1.1268 -0.61643,-1.61451 -0.61643,-4.88955 0,-2.00085 -0.0595,-3.63308 -0.13229,-3.62718 -0.0728,0.006 -0.40384,0.59019 -0.73572,1.29841 -0.57143,1.21939 -3.37596,4.16405 -4.9451,5.19219 -0.65178,0.42707 -0.69195,0.41025 -2.25624,-0.94492 -2.1805,-1.889 -3.55575,-3.50081 -4.35431,-5.10331 -0.59633,-1.19668 -0.67322,-1.67745 -0.67322,-4.20944 0,-1.57216 -0.0675,-2.85847 -0.14994,-2.85847 -0.0825,0 -0.54019,0.29766 -1.01716,0.66146 -0.47697,0.3638 -1.03973,0.66146 -1.25057,0.66146 -0.51367,0 -3.31479,-2.38967 -4.43048,-3.7797 -1.94101,-2.41828 -1.97654,-2.62855 -1.76174,-10.42704 0.10543,-3.82796 0.10868,-6.95993 0.007,-6.95993 -0.10147,0 -0.53823,0.29766 -0.97058,0.66146 -0.43236,0.3638 -0.90872,0.66146 -1.05858,0.66146 -0.4982,0 -4.22813,-3.81954 -4.77997,-4.89479 -0.52319,-1.01942 -0.53669,-1.33075 -0.36716,-8.46667 0.21692,-9.13076 0.83355,-28.05657 1.36203,-41.80417 0.21817,-5.67531 0.39569,-14.48593 0.3945,-19.57916 -0.001,-5.09323 0.0499,-9.61761 0.11363,-10.05417 0.0637,-0.43656 0.26077,-4.8033 0.43793,-9.70385 0.36635,-10.13337 0.4035,-9.86651 -1.6274,-11.69245 -2.23898,-2.01305 -4.1833,-2.34557 -7.58026,-1.29642 l -1.37955,0.42608 -1.53085,-0.9503 c -0.84196,-0.52267 -1.53084,-1.07289 -1.53084,-1.22272 0,-0.14984 -0.1663,-0.42721 -0.36954,-0.61638 -0.27238,-0.25352 -0.32045,-0.25699 -0.18283,-0.0132 0.1027,0.1819 0.0645,0.33073 -0.0849,0.33073 -0.28331,0 -2.10903,-2.33026 -2.65422,-3.387728 -1.07234,-2.079928 -1.60347,-6.487899 -1.10613,-9.179984 0.1613,-0.873125 0.72236,-2.461049 1.24679,-3.528719 l 0.95351,-1.941219 -0.6575,-1.498364 c -1.61503,-3.680489 -2.64217,-7.811723 -2.67495,-10.758781 -0.0247,-2.222111 0.0325,-2.489927 0.85564,-4.007419 0.80271,-1.479786 3.10358,-4.03362 4.82583,-5.356394 1.32242,-1.015683 7.02595,-3.983939 9.65404,-5.0242 7.52464,-2.978435 14.04302,-4.758104 22.76027,-6.214085 29.70269,-4.961027 64.2648,-1.258162 84.01501,9.001075 5.00943,2.602148 8.42811,5.75068 9.39063,8.648566 0.88239,2.656621 0.087,7.570618 -2.11452,13.063053 l -0.97707,2.43768 0.69825,1.10611 c 1.66257,2.633677 2.24573,6.717063 1.4495,10.149783 -0.80152,3.455571 -3.29099,6.801236 -6.24046,8.386686 l -1.31235,0.70544 -1.98437,-0.67087 c -1.79563,-0.60706 -2.13282,-0.64353 -3.54503,-0.38346 -0.87922,0.16192 -2.01565,0.60272 -2.60271,1.00956 -0.97475,0.6755 -2.29566,2.31887 -2.65032,3.29731 -0.0857,0.23655 0.0169,4.64186 0.22799,9.78958 0.21113,5.14773 0.4289,15.66982 0.48393,23.38242 0.055,7.7126 0.1725,14.85635 0.26106,15.875 0.0885,1.01864 0.33746,8.28146 0.55313,16.13958 0.21566,7.85813 0.5218,18.35432 0.6803,23.32487 0.27907,8.75144 0.2717,9.07464 -0.23301,10.21561 -0.5099,1.15271 -2.83736,3.72014 -4.15523,4.58364 -0.63359,0.41515 -0.70361,0.40365 -1.57085,-0.25782 -0.49924,-0.38079 -0.97614,-0.69234 -1.05978,-0.69234 -0.0837,0 -0.0731,3.07427 0.0235,6.83172 l 0.17555,6.83171 -0.70431,1.53841 c -0.7803,1.70441 -4.77503,5.96483 -5.59284,5.96483 -0.25416,0 -0.89455,-0.38031 -1.42308,-0.84513 l -0.96097,-0.84512 -0.1431,3.42481 c -0.1025,2.45312 -0.26693,3.65642 -0.57957,4.24113 -0.76497,1.43068 -2.72364,3.6419 -4.36857,4.93183 l -1.5943,1.25023 -1.07415,-0.77811 c -1.63729,-1.18605 -3.89501,-3.54128 -4.68207,-4.8843 -0.38797,-0.66202 -0.74397,-1.20368 -0.79112,-1.20368 -0.0472,0 -0.0656,1.69664 -0.041,3.77032 0.0405,3.41212 -0.01,3.87217 -0.52928,4.84246 -0.76482,1.42859 -2.63204,3.47604 -4.44708,4.87634 -1.32506,1.02227 -1.54664,1.10899 -2.14134,0.83802 -0.9481,-0.43198 -3.07011,-2.47891 -4.38388,-4.22877 -0.61915,-0.82468 -1.19686,-1.58806 -1.2838,-1.69641 -0.0869,-0.10834 -0.1731,0.44487 -0.19147,1.22938 -0.0381,1.62666 -0.40528,2.45043 -1.82852,4.10212 -1.15306,1.33814 -4.73549,4.25821 -5.2241,4.25821 -0.18044,0 -1.09537,-0.63477 -2.03319,-1.4106 z m -23.31483,-95.13395 c 5.26425,-3.07031 13.09658,-5.72448 18.69928,-6.3367 l 2.11667,-0.23129 1.94073,1.02085 c 1.0674,0.56147 2.25802,1.01815 2.64583,1.01485 0.38781,-0.003 1.47349,-0.42003 2.41262,-0.92604 2.13174,-1.14862 3.30213,-1.18316 7.91942,-0.23373 4.68927,0.96422 8.26064,2.20603 12.90511,4.48726 2.20616,1.0836 4.07339,1.97018 4.1494,1.97018 0.076,0 1.61604,-2.17289 3.42228,-4.82864 1.80624,-2.65576 4.79388,-6.97177 6.6392,-9.59115 1.84532,-2.61937 3.97713,-6.01265 4.73736,-7.54062 l 1.38222,-2.77813 -0.0972,-9.65729 c -0.0534,-5.31151 -0.17251,-12.2546 -0.26458,-15.4291 l -0.16741,-5.77181 -1.58867,-0.8621 c -0.87377,-0.47415 -3.1657,-1.5376 -5.09319,-2.36321 -13.08862,-5.606348 -29.78687,-7.621265 -48.48376,-5.850357 -6.6756,0.63229 -13.35931,2.000233 -19.44688,3.980155 -2.89062,0.940142 -9.19184,3.860762 -10.44283,4.840252 l -0.65325,0.51148 -0.32745,11.59682 c -0.5144,18.21788 -0.5128,18.81374 0.0543,20.19579 0.7406,1.80487 2.10393,3.94778 7.65899,12.03854 2.79758,4.07458 5.71105,8.3906 6.47437,9.59114 0.76332,1.20055 1.44492,2.18282 1.51466,2.18282 0.0697,0 0.92148,-0.46349 1.89275,-1.02997 z m -0.0861,-23.67107 c -3.46445,-1.62047 -5.68072,-6.17696 -5.68072,-11.67917 0,-4.30895 1.21413,-7.73603 3.57919,-10.10282 2.36272,-2.36444 5.12915,-2.76389 7.95688,-1.14891 7.03403,4.0173 6.69994,19.29015 -0.50045,22.87826 -1.76042,0.87725 -3.55424,0.89489 -5.3549,0.0526 z m 1.35809,-13.3387 c 1.36193,-1.1032 1.51795,-2.64888 0.38205,-3.78478 -0.59312,-0.59312 -1.01643,-0.7734 -1.816,-0.7734 -2.27789,0 -3.30158,2.6164 -1.66429,4.25369 0.90057,0.90056 2.20421,1.02868 3.09824,0.30449 z m 45.54302,13.69921 c -5.78194,-1.74097 -8.46199,-12.09686 -4.97069,-19.2071 1.07378,-2.18681 3.19068,-4.16717 5.04226,-4.71703 1.7365,-0.51569 1.94566,-0.5168 3.6213,-0.0192 2.97397,0.88317 5.52619,4.42622 6.29441,8.73806 0.46896,2.63215 0.47033,3.69159 0.008,6.28422 -1.11865,6.27506 -5.57469,10.25213 -9.99543,8.92103 z m 0.99008,-13.82603 c 0.46614,-0.40096 0.7413,-0.95906 0.84163,-1.70702 0.13213,-0.98511 0.0575,-1.20287 -0.65747,-1.91782 -0.5913,-0.5913 -1.05329,-0.80652 -1.73128,-0.80652 -1.2902,0 -1.7224,0.21471 -2.16844,1.07726 -1.34727,2.60533 1.54778,5.21874 3.71556,3.3541 z m 24.80519,-81.989623 c -1.62337,-1.027846 -7.40112,-3.370652 -10.97238,-4.44916 -15.0628,-4.548924 -33.71032,-6.023822 -51.94715,-4.108684 -10.78066,1.13213 -21.02702,3.696018 -29.01421,7.260062 -1.87884,0.838374 -2.92534,1.181139 -2.99318,0.98037 -0.70942,-2.09948 -1.71338,-7.486502 -1.71389,-9.196336 -4.9e-4,-1.63731 0.56845,-3.420478 1.46738,-4.599034 1.46104,-1.915514 5.19112,-4.142439 10.36088,-6.185619 14.4126,-5.696119 36.72787,-7.532038 56.43388,-4.642923 10.67353,1.564857 21.36746,4.855916 26.40103,8.124929 3.42594,2.224953 4.55522,4.002021 4.55522,7.168263 0,1.564002 -1.20725,9.239707 -1.55223,9.869098 -0.12723,0.232129 -0.4039,0.172506 -1.02535,-0.220966 z M 317.27726,-1.19482 c 0,-1.283057 1.47722,-8.920297 1.90189,-9.832783 0.91596,-1.968115 2.21833,-3.202983 4.53841,-4.3032 6.4284,-3.04844 17.71809,-3.510974 26.55074,-1.087771 4.11627,1.129282 6.96748,3.319776 7.87413,6.049429 0.39885,1.200814 2.05553,9.33388 1.92597,9.455048 -0.0335,0.03134 -1.85044,-0.39983 -4.03763,-0.95815 -6.36049,-1.623636 -9.25831,-1.95085 -17.32226,-1.955985 -5.36875,-0.0034 -7.75532,0.10567 -10.18646,0.465618 -3.49559,0.517549 -8.10537,1.519712 -9.89527,2.151225 -1.40214,0.494706 -1.34952,0.49406 -1.34952,0.016569 z"
         id="path3"
         sodipodi:nodetypes="cscsssscsssssssssssssssscsssscsssssssscssssssssscssscsssssssssssssscssscssscsssscsssssssccsscscsssssssccscssssscssssssssssssssssssscsssscccssssssssssssssssssssssssssssss" /><ellipse
         style="fill:#ffffff;stroke-width:15.875;stroke-linecap:round;stroke-linejoin:round;paint-order:stroke markers fill"
         id="path9"
         cx="313.57043"
         cy="121.95866"
         rx="4.9939966"
         ry="4.7311549" /><path
         style="fill:#b87145"
         d="m 336.3126,254.16552 c -3.27981,-2.71329 -4.67914,-4.7287 -4.9871,-7.18278 l -0.16671,-1.3285 -0.61469,1.25745 c -0.67662,1.38412 -4.62305,5.22485 -5.36865,5.22485 -1.11554,0 -5.03168,-3.87324 -6.09113,-6.0244 -0.55494,-1.1268 -0.61643,-1.61451 -0.61643,-4.88955 0,-2.00085 -0.0595,-3.63308 -0.13229,-3.62718 -0.0728,0.006 -0.40384,0.59019 -0.73572,1.29841 -0.57143,1.21939 -3.37596,4.16405 -4.9451,5.19219 -0.65178,0.42707 -0.69195,0.41025 -2.25624,-0.94492 -2.1805,-1.889 -3.55575,-3.50081 -4.35431,-5.10331 -0.59633,-1.19668 -0.67322,-1.67745 -0.67322,-4.20944 0,-1.57216 -0.0675,-2.85847 -0.14994,-2.85847 -0.0825,0 -0.54019,0.29766 -1.01716,0.66146 -0.47697,0.3638 -1.03973,0.66146 -1.25057,0.66146 -0.51367,0 -3.31479,-2.38967 -4.43048,-3.7797 -1.94101,-2.41828 -1.97654,-2.62855 -1.76174,-10.42704 0.10543,-3.82796 0.10868,-6.95993 0.007,-6.95993 -0.10147,0 -0.53823,0.29766 -0.97058,0.66146 -0.43236,0.3638 -0.90872,0.66146 -1.05858,0.66146 -0.4982,0 -4.22813,-3.81954 -4.77997,-4.89479 -0.52319,-1.01942 -0.53669,-1.33075 -0.36716,-8.46667 0.22804,-9.59881 0.88103,-29.66893 1.2396,-38.1 0.15472,-3.63802 0.38765,-12.7463 0.51761,-20.24063 0.22126,-12.75911 0.57826,-23.91212 0.94605,-29.55536 l 0.15873,-2.43558 1.45815,-0.82292 c 0.80197,-0.45261 1.51885,-0.76222 1.59306,-0.68801 0.0742,0.0742 -0.0261,5.17194 -0.22294,11.32829 -0.19681,6.15636 -0.35886,12.45792 -0.36009,14.00347 -0.002,2.79066 0.006,2.82541 1.13228,5.02708 0.624,1.21935 3.10927,5.07449 5.52284,8.56699 2.41356,3.4925 5.50307,8.04664 6.86557,10.12031 1.3625,2.07368 2.6003,3.77032 2.75066,3.77032 0.15035,0 0.72529,-0.28529 1.27763,-0.63396 4.98046,-3.14403 14.08212,-6.26229 19.49044,-6.67751 2.07074,-0.15897 2.15446,-0.1417 3.85843,0.79636 0.95797,0.52737 2.11018,0.95886 2.56046,0.95886 0.45029,0 1.63102,-0.42802 2.62386,-0.95116 1.72041,-0.90651 1.89482,-0.94397 3.71482,-0.79785 5.596,0.44926 14.03996,3.22307 19.43235,6.38346 0.89191,0.52274 1.70747,0.85469 1.81235,0.73768 0.10489,-0.11702 0.91858,-1.30599 1.80821,-2.64215 0.88962,-1.33617 3.95682,-5.80101 6.81599,-9.92188 5.25448,-7.57318 7.0917,-10.74472 7.38297,-12.745 0.0879,-0.60361 0.0523,-6.99107 -0.079,-14.19435 -0.13138,-7.20328 -0.21812,-13.12619 -0.19276,-13.16201 0.0254,-0.0358 0.72125,0.30054 1.54642,0.74748 1.49244,0.80834 1.50035,0.8191 1.50516,2.0495 0.003,0.6803 0.17949,5.52315 0.39296,10.7619 0.21347,5.23875 0.39222,13.27547 0.39723,17.85938 0.005,4.5839 0.1228,11.37047 0.26177,15.08125 0.13897,3.71078 0.43283,12.93812 0.65302,20.50521 0.2202,7.56708 0.53108,17.88529 0.69085,22.92936 0.28138,8.88342 0.27416,9.20794 -0.2301,10.3479 -0.50939,1.15158 -2.83736,3.71917 -4.15462,4.58227 -0.63359,0.41515 -0.70361,0.40365 -1.57085,-0.25782 -0.49924,-0.38079 -0.97614,-0.69234 -1.05978,-0.69234 -0.0837,0 -0.0731,3.07427 0.0235,6.83172 l 0.17555,6.83171 -0.70431,1.53841 c -0.7803,1.70441 -4.77503,5.96483 -5.59284,5.96483 -0.25416,0 -0.89455,-0.38031 -1.42308,-0.84513 l -0.96097,-0.84512 -0.1431,3.42481 c -0.1025,2.45312 -0.26693,3.65642 -0.57957,4.24113 -0.76497,1.43068 -2.72364,3.6419 -4.36857,4.93183 l -1.5943,1.25023 -1.07415,-0.77811 c -1.63729,-1.18605 -3.89501,-3.54128 -4.68207,-4.8843 -0.38797,-0.66202 -0.74397,-1.20368 -0.79112,-1.20368 -0.0472,0 -0.0656,1.69664 -0.041,3.77032 0.0405,3.41212 -0.01,3.87217 -0.52928,4.84246 -0.76482,1.42859 -2.63204,3.47604 -4.44708,4.87634 -1.32506,1.02227 -1.54664,1.10899 -2.14134,0.83802 -0.9481,-0.43198 -3.07011,-2.47891 -4.38388,-4.22877 -0.61915,-0.82468 -1.19686,-1.58806 -1.2838,-1.69641 -0.0869,-0.10834 -0.1731,0.44487 -0.19147,1.22938 -0.0381,1.62666 -0.40528,2.45043 -1.82852,4.10212 -1.15306,1.33814 -4.73549,4.25821 -5.2241,4.25821 -0.18044,0 -1.09537,-0.63477 -2.03319,-1.4106 z m 5.70321,-11.25337 3.43958,-1.80746 0.0725,-4.40595 c 0.0469,-2.84917 -0.0222,-4.40595 -0.19574,-4.40595 -0.14756,0 -1.76613,0.74414 -3.59682,1.65364 l -3.32853,1.65365 -3.29827,-1.71979 c -1.81405,-0.94589 -3.41305,-1.75948 -3.55333,-1.80799 -0.15712,-0.0543 -0.25506,1.63097 -0.25506,4.3887 v 4.4769 l 3.37344,1.88515 c 1.85539,1.03684 3.4925,1.88772 3.63802,1.89085 0.14552,0.003 1.81239,-0.80765 3.70417,-1.80175 z m 0.17155,-17.63307 3.34655,-1.71142 0.12715,-1.25983 c 0.12901,-1.27831 -0.007,-7.23454 -0.1686,-7.39638 -0.0485,-0.0485 -1.68931,0.6707 -3.64616,1.59831 l -3.55789,1.68657 -3.29568,-1.66928 c -1.81262,-0.9181 -3.38497,-1.67546 -3.49411,-1.68302 -0.10914,-0.008 -0.19585,1.92102 -0.19268,4.28574 l 0.006,4.29947 3.36768,1.76732 c 1.85222,0.97202 3.54627,1.77331 3.76455,1.78063 0.21828,0.007 1.90282,-0.75682 3.74343,-1.69811 z m 0.0903,-25.85587 3.30998,-1.64875 0.0501,-1.5924 c 0.0521,-1.65571 -0.0711,-6.83738 -0.16515,-6.94642 -0.0296,-0.0343 -1.62674,0.64934 -3.54922,1.5192 l -3.49543,1.58157 -3.33916,-1.58535 c -1.83654,-0.87195 -3.44031,-1.58536 -3.56392,-1.58536 -0.12362,0 -0.22476,1.87731 -0.22476,4.1718 v 4.17179 l 3.50573,1.76606 c 1.92815,0.97133 3.65334,1.77293 3.83377,1.78133 0.18042,0.008 1.81752,-0.72666 3.63802,-1.63347 z M 312.91164,135.3605 c -3.46445,-1.62047 -5.68072,-6.17696 -5.68072,-11.67917 0,-4.30895 1.21413,-7.73603 3.5792,-10.10282 2.36271,-2.36444 5.12914,-2.76389 7.95687,-1.14891 7.03403,4.0173 6.69994,19.29015 -0.50045,22.87826 -1.76042,0.87725 -3.55424,0.89489 -5.3549,0.0526 z m 1.35809,-13.3387 c 1.36193,-1.1032 1.51795,-2.64888 0.38205,-3.78478 -0.59312,-0.59312 -1.01643,-0.7734 -1.816,-0.7734 -2.27789,0 -3.30158,2.6164 -1.66429,4.25369 0.90057,0.90056 2.20421,1.02868 3.09824,0.30449 z m 45.54302,13.69921 c -5.78194,-1.74097 -8.46199,-12.09686 -4.97069,-19.2071 1.07378,-2.18681 3.19068,-4.16717 5.04226,-4.71703 1.7365,-0.51569 1.94566,-0.5168 3.6213,-0.0192 2.97397,0.88317 5.52619,4.42622 6.29441,8.73806 0.46896,2.63215 0.47033,3.69159 0.008,6.28422 -1.11865,6.27506 -5.57469,10.25213 -9.99543,8.92103 z m 0.99008,-13.82603 c 0.46614,-0.40096 0.7413,-0.95906 0.84163,-1.70702 0.13213,-0.98511 0.0575,-1.20287 -0.65747,-1.91782 -0.5913,-0.5913 -1.05329,-0.80652 -1.73128,-0.80652 -1.2902,0 -1.7224,0.21471 -2.16844,1.07726 -1.34727,2.60533 1.54778,5.21874 3.71556,3.3541 z M 275.40748,83.400213 c -1.62581,-3.703691 -2.65316,-7.828158 -2.68603,-10.783467 -0.0247,-2.222111 0.0325,-2.489927 0.85563,-4.007419 0.80015,-1.475069 3.11361,-4.044942 4.80643,-5.339166 1.17511,-0.898415 5.40574,-3.145691 7.96205,-4.229385 11.2466,-4.767744 24.35872,-7.640193 40.05983,-8.775835 4.78172,-0.345856 17.33583,-0.346167 22.75868,-5.64e-4 16.81055,1.071349 31.43223,4.350446 43.51202,9.758123 3.98604,1.784404 6.65775,3.487522 8.75051,5.578147 2.54297,2.540372 3.034,3.703481 3.01784,7.148391 -0.01,2.033417 -0.17131,3.345521 -0.60345,4.894791 -0.70377,2.523082 -2.37066,6.945887 -2.69284,7.145006 -0.12568,0.07768 -0.74219,-0.340455 -1.37001,-0.929181 -6.16944,-5.785237 -21.85896,-11.501892 -38.05088,-13.864268 -8.83171,-1.288533 -20.31992,-1.884697 -28.83958,-1.496588 -14.02246,0.638787 -23.44899,2.034186 -34.12565,5.051579 -9.37488,2.649487 -17.48272,6.505844 -21.41858,10.187377 l -1.2674,1.185509 z M 383.02622,38.605006 c -6.57475,-3.213317 -17.57727,-6.065873 -27.91354,-7.236977 -22.66727,-2.568211 -46.93756,0.291374 -61.59406,7.257164 -1.82726,0.868441 -2.76008,1.189279 -2.83304,0.974407 -0.30544,-0.899466 -1.01445,-3.9956 -1.34467,-5.871921 -0.90551,-5.145161 -0.0824,-7.547456 3.44278,-10.047795 6.75339,-4.790055 19.5096,-8.301711 35.2092,-9.692737 4.53307,-0.401641 15.74972,-0.403182 20.24062,-0.0028 15.37438,1.370755 28.81895,4.83234 35.42014,9.119647 3.7789,2.454309 4.71655,4.190149 4.43832,8.216533 -0.20453,2.95982 -1.26632,8.688489 -1.62616,8.773609 -0.14552,0.03442 -1.69334,-0.635694 -3.43959,-1.48915 z M 317.27726,-1.201368 c 0,-1.277976 1.47842,-8.916326 1.90189,-9.826235 0.91596,-1.968115 2.21833,-3.202983 4.53841,-4.3032 6.4284,-3.04844 17.71809,-3.510974 26.55074,-1.087771 4.11627,1.129282 6.96748,3.319776 7.87413,6.049429 0.39921,1.201915 2.05525,9.332818 1.92597,9.456229 -0.0335,0.03199 -1.49242,-0.334236 -3.24203,-0.813828 -6.50783,-1.78389 -12.12609,-2.383676 -20.36682,-2.174292 -3.96598,0.100771 -6.87472,0.320061 -9.12812,0.688173 -3.31172,0.540996 -7.96004,1.596214 -9.32656,2.117225 -0.5865,0.223611 -0.72761,0.203106 -0.72761,-0.10573 z"
         id="path2"
         sodipodi:nodetypes="cscsssscsssssssssssssssssscsssccssssssssssssssssscsssssssssscssscssscsssscsssssssccccssscssscscscccssscscccscccccssscssscscscsssssssssssscsssscccssssssssssssssscssssssscsssssssssssssssssssssssss" /><ellipse
         style="fill:#ffffff;stroke-width:15.875;stroke-linecap:round;stroke-linejoin:round;paint-order:stroke markers fill"
         id="path10"
         cx="359.81976"
         cy="122.47997"
         rx="5.2040048"
         ry="5.3898625" /><path
         style="fill:#171615"
         d="m 326.72458,169.87008 c -1.55002,-1.6431 -2.92571,-3.91762 -3.47303,-5.74218 -0.15441,-0.51476 -0.0475,-0.57633 1.22777,-0.70726 0.76829,-0.0789 7.81146,-0.16069 15.65147,-0.18179 l 14.25456,-0.0384 -0.18454,0.74564 c -0.42014,1.69767 -1.92692,4.20855 -3.5707,5.95019 l -1.73514,1.83844 -1.84676,-0.93729 c -2.46148,-1.24929 -5.19983,-1.83975 -8.47199,-1.82678 -3.08555,0.0122 -5.2539,0.50189 -8.03111,1.81358 -1.07013,0.50542 -1.97844,0.91895 -2.01847,0.91895 -0.04,0 -0.85095,-0.8249 -1.80206,-1.83312 z m -13.01919,-34.19464 c -3.07157,-1.1556 -5.15312,-4.08163 -6.0735,-8.53751 -0.51856,-2.51049 -0.51712,-4.40966 0.005,-6.9386 0.5664,-2.74215 1.43835,-4.59251 2.90096,-6.15616 1.59815,-1.70855 3.0316,-2.40038 4.9735,-2.40038 4.75218,0 8.21427,5.08395 8.19805,12.03854 -0.0126,5.39159 -2.10851,9.81545 -5.47396,11.55381 -1.23355,0.63717 -3.43764,0.85138 -4.5303,0.4403 z m 0.94639,-13.95813 c 1.44314,-1.44314 0.76165,-3.91453 -1.21634,-4.41097 -1.06684,-0.26776 -2.45799,0.50171 -2.92416,1.61741 -1.10835,2.65266 2.11,4.82406 4.1405,2.79356 z m 45.62028,14.03308 c -2.9035,-0.75565 -5.32781,-3.70004 -6.40057,-7.77364 -0.57769,-2.19369 -0.57238,-6.41696 0.0109,-8.63322 1.60806,-6.1105 6.32209,-9.19891 10.70622,-7.0142 4.98214,2.4827 7.00613,12.15848 3.8562,18.43467 -1.87532,3.73653 -5.19431,5.76154 -8.17271,4.98639 z m 0.68181,-14.03308 c 1.33951,-1.33951 0.83803,-3.66478 -0.91516,-4.24338 -1.84509,-0.60893 -3.33853,0.49075 -3.33853,2.45829 0,2.35594 2.59417,3.4446 4.25369,1.78509 z"
         id="path1" /></g></g></svg>
